<svg width="24" height="25" viewBox="0 0 24 25" fill="none" xmlns="http://www.w3.org/2000/svg">
<path d="M20.9 2.46436H3.1C2.80826 2.46436 2.52847 2.58025 2.32218 2.78654C2.11589 2.99283 2 3.27262 2 3.56436V21.3644C2 21.6561 2.11589 21.9359 2.32218 22.1422C2.52847 22.3485 2.80826 22.4644 3.1 22.4644H12.68V14.7144H10.08V11.7144H12.68V9.46436C12.6261 8.93611 12.6885 8.40248 12.8627 7.90089C13.0369 7.3993 13.3188 6.9419 13.6885 6.56077C14.0582 6.17963 14.5068 5.884 15.0028 5.69459C15.4989 5.50519 16.0304 5.42661 16.56 5.46436C17.3383 5.45957 18.1163 5.49963 18.89 5.58436V8.28436H17.3C16.04 8.28436 15.8 8.88436 15.8 9.75436V11.6844H18.8L18.41 14.6844H15.8V22.4644H20.9C21.0445 22.4644 21.1875 22.4359 21.321 22.3806C21.4544 22.3253 21.5757 22.2443 21.6778 22.1422C21.78 22.04 21.861 21.9188 21.9163 21.7853C21.9715 21.6518 22 21.5088 22 21.3644V3.56436C22 3.4199 21.9715 3.27686 21.9163 3.1434C21.861 3.00995 21.78 2.88868 21.6778 2.78654C21.5757 2.68439 21.4544 2.60337 21.321 2.54809C21.1875 2.49281 21.0445 2.46436 20.9 2.46436Z" fill="white"/>
</svg>
