<svg width="24" height="25" viewBox="0 0 24 25" fill="none" xmlns="http://www.w3.org/2000/svg">
<path d="M12 2.46436C14.717 2.46436 15.056 2.47436 16.122 2.52436C17.187 2.57436 17.912 2.74136 18.55 2.98936C19.21 3.24336 19.766 3.58736 20.322 4.14236C20.8305 4.64225 21.224 5.24694 21.475 5.91436C21.722 6.55136 21.89 7.27736 21.94 8.34236C21.987 9.40836 22 9.74736 22 12.4644C22 15.1814 21.99 15.5204 21.94 16.5864C21.89 17.6514 21.722 18.3764 21.475 19.0144C21.2247 19.6821 20.8311 20.287 20.322 20.7864C19.822 21.2947 19.2173 21.6881 18.55 21.9394C17.913 22.1864 17.187 22.3544 16.122 22.4044C15.056 22.4514 14.717 22.4644 12 22.4644C9.283 22.4644 8.944 22.4544 7.878 22.4044C6.813 22.3544 6.088 22.1864 5.45 21.9394C4.78233 21.6888 4.17753 21.2953 3.678 20.7864C3.16941 20.2865 2.77593 19.6818 2.525 19.0144C2.277 18.3774 2.11 17.6514 2.06 16.5864C2.013 15.5204 2 15.1814 2 12.4644C2 9.74736 2.01 9.40836 2.06 8.34236C2.11 7.27636 2.277 6.55236 2.525 5.91436C2.77524 5.24653 3.1688 4.64168 3.678 4.14236C4.17767 3.63359 4.78243 3.24008 5.45 2.98936C6.088 2.74136 6.812 2.57436 7.878 2.52436C8.944 2.47736 9.283 2.46436 12 2.46436ZM12 7.46436C10.6739 7.46436 9.40215 7.99114 8.46447 8.92882C7.52678 9.8665 7 11.1383 7 12.4644C7 13.7904 7.52678 15.0622 8.46447 15.9999C9.40215 16.9376 10.6739 17.4644 12 17.4644C13.3261 17.4644 14.5979 16.9376 15.5355 15.9999C16.4732 15.0622 17 13.7904 17 12.4644C17 11.1383 16.4732 9.8665 15.5355 8.92882C14.5979 7.99114 13.3261 7.46436 12 7.46436ZM18.5 7.21436C18.5 6.88283 18.3683 6.56489 18.1339 6.33047C17.8995 6.09605 17.5815 5.96436 17.25 5.96436C16.9185 5.96436 16.6005 6.09605 16.3661 6.33047C16.1317 6.56489 16 6.88283 16 7.21436C16 7.54588 16.1317 7.86382 16.3661 8.09824C16.6005 8.33266 16.9185 8.46436 17.25 8.46436C17.5815 8.46436 17.8995 8.33266 18.1339 8.09824C18.3683 7.86382 18.5 7.54588 18.5 7.21436ZM12 9.46436C12.7956 9.46436 13.5587 9.78043 14.1213 10.343C14.6839 10.9056 15 11.6687 15 12.4644C15 13.26 14.6839 14.0231 14.1213 14.5857C13.5587 15.1483 12.7956 15.4644 12 15.4644C11.2044 15.4644 10.4413 15.1483 9.87868 14.5857C9.31607 14.0231 9 13.26 9 12.4644C9 11.6687 9.31607 10.9056 9.87868 10.343C10.4413 9.78043 11.2044 9.46436 12 9.46436Z" fill="white"/>
</svg>
