<svg width="24" height="25" viewBox="0 0 24 25" fill="none" xmlns="http://www.w3.org/2000/svg">
<path d="M22.162 6.12028C21.3986 6.45798 20.589 6.67976 19.76 6.77828C20.6337 6.25572 21.2877 5.4333 21.6 4.46428C20.78 4.95228 19.881 5.29428 18.944 5.47928C18.3146 4.80586 17.4804 4.35925 16.5709 4.20887C15.6615 4.05849 14.7279 4.21277 13.9153 4.64774C13.1026 5.0827 12.4564 5.77397 12.0771 6.61407C11.6978 7.45418 11.6067 8.39606 11.818 9.29328C10.1551 9.20994 8.52832 8.77781 7.04328 8.02495C5.55823 7.27209 4.24812 6.21533 3.19799 4.92328C2.82628 5.56173 2.63095 6.28751 2.63199 7.02628C2.63199 8.47628 3.36999 9.75728 4.49199 10.5073C3.828 10.4864 3.17862 10.3071 2.59799 9.98428V10.0363C2.59819 11.002 2.93236 11.9379 3.54384 12.6853C4.15532 13.4328 5.00647 13.9458 5.95299 14.1373C5.33661 14.3043 4.6903 14.3289 4.06299 14.2093C4.32986 15.0405 4.85 15.7675 5.55058 16.2884C6.25117 16.8093 7.09712 17.0981 7.96999 17.1143C7.10247 17.7956 6.10917 18.2993 5.04687 18.5965C3.98458 18.8936 2.87412 18.9785 1.77899 18.8463C3.69069 20.0757 5.91609 20.7284 8.18899 20.7263C15.882 20.7263 20.089 14.3533 20.089 8.82628C20.089 8.64628 20.084 8.46428 20.076 8.28628C20.8949 7.69445 21.6016 6.9613 22.163 6.12128L22.162 6.12028Z" fill="white"/>
</svg>
