<svg width="24" height="25" viewBox="0 0 24 25" fill="none" xmlns="http://www.w3.org/2000/svg">
<path d="M21.543 6.96236C22 8.74436 22 12.4644 22 12.4644C22 12.4644 22 16.1844 21.543 17.9664C21.289 18.9514 20.546 19.7264 19.605 19.9884C17.896 20.4644 12 20.4644 12 20.4644C12 20.4644 6.107 20.4644 4.395 19.9884C3.45 19.7224 2.708 18.9484 2.457 17.9664C2 16.1844 2 12.4644 2 12.4644C2 12.4644 2 8.74436 2.457 6.96236C2.711 5.97736 3.454 5.20236 4.395 4.94036C6.107 4.46436 12 4.46436 12 4.46436C12 4.46436 17.896 4.46436 19.605 4.94036C20.55 5.20636 21.292 5.98036 21.543 6.96236ZM10 15.9644L16 12.4644L10 8.96436V15.9644Z" fill="white"/>
</svg>
